<svg version="1.0" xmlns="http://www.w3.org/2000/svg" width="666.667" height="157.333" viewBox="0 0 500 118"><path d="M45.5 1.9C23 7.5 6.5 24.5 1.5 47.4c-6.7 30.1 13.2 61.5 43.6 69 23.5 5.8 48.9-4 62.3-24.2 5.9-8.9 8.3-15.4 9.7-25.9C121 36.5 101 8.3 71.3 1.6c-9-2-16.9-1.9-25.8.3m27.1 15.8c2.7.9 7.2 3.1 10.1 5 23.4 15.4 26.6 48.3 6.5 67.5-3.2 3-7.7 6.5-10 7.7-27 13.8-59.1-3-63.5-33.2-2.9-19.9 9.4-39.6 29.2-46.9 6.2-2.3 21.1-2.3 27.7-.1"/><path d="M55.6 29.8c-.8 1.5-1.7 4.4-2.1 6.5-.7 3.6-1.8 4.6-3 2.8-.3-.5-2.1-1.5-4.1-2.1-8.9-3-14.3 5.2-11.8 17.9.8 3.9 1.5 3.9 3.7-.2 1-1.8 3.2-4.1 4.8-5.1 2.8-1.6 3.2-1.6 5.4-.2 3.1 2 3.3 2.8 4.3 22.1.9 16.1 2.9 24.5 5.6 24.5.7 0 2.1-1.7 3.1-3.7 1.4-2.9 2-7.6 2.6-20.3 1-19.4 1.2-20.5 4.3-22.6 2.2-1.4 2.8-1.4 5.3 0 1.6.8 3.8 3.1 4.8 5 1.1 2 2.2 3.6 2.6 3.6.9 0 1.9-5.4 1.9-10.2 0-10.4-9.5-15.1-17.1-8.3-1.5 1.4-1.7 1.2-2.3-2.6-.8-5.2-3.2-9.9-5.1-9.9-.8 0-2.1 1.3-2.9 2.8M238 1.6c-18.8 4-36.3 19.1-43 37.2-4.7 12.6-4.5 29 .6 42 15.6 39.5 65.8 49.8 95.9 19.7 32.9-32.9 16.4-88.6-29.2-98.9-8.6-1.9-15.5-1.9-24.3 0m26.3 16.3c30.2 10.4 39.2 49.3 16.5 72-13.9 13.9-34.6 16.9-52 7.4-6.4-3.5-14.8-12.6-18.5-20-2.6-5.4-2.8-6.6-2.8-17.8 0-11.4.2-12.3 3.1-18.5 5.4-11.1 12.5-17.8 24.1-22.6 7.7-3.1 21.2-3.4 29.6-.5"/><path d="M248.1 28.5c-.7 2.5-2.5 7.8-4 11.8l-2.7 7.2-13.3.5-13.3.5 10.1 7.9c5.6 4.3 10.1 8 10.1 8.2s-1.8 5.8-4 12.5-3.8 12.4-3.6 12.6c.2.3 5.4-3 11.6-7.2l11.1-7.7 12.1 8.3c7.6 5.1 11.8 7.5 11.4 6.3-3.2-7.7-8.5-24.9-7.8-25.5.4-.3 5.1-4.1 10.5-8.2l9.8-7.6-13.7-.3-13.7-.3-4-11.8c-2.3-6.4-4.3-11.7-4.7-11.7-.3 0-1.2 2-1.9 4.5M429 1.5c-19.4 4.4-37 19.8-43 37.9-7.5 22.5-1.6 46.9 14.9 62.5 10.8 10.1 22.6 15 37.7 15.8 13.7.7 23.8-2.1 35.5-9.8 26.6-17.8 33.8-54.4 15.8-81.3C482 14.7 472.5 7.5 459 3c-8.5-2.8-21.5-3.4-30-1.5m31.2 18.4c18.7 9.3 28.8 31.2 23.2 50.2-2.6 8.6-6.2 14.9-11.8 20.4-21.5 20.9-56.9 14.2-69.9-13.2-3-6.4-3.2-7.4-3.2-18.3 0-11 .2-11.8 3.3-18.3 3.8-7.7 12-16.5 18.4-19.8 8.6-4.4 11-4.9 22.3-4.6 10.2.2 11.5.5 17.7 3.6"/><path d="M437.6 31.2c-2 2.8-2 4.8-.2 7.3 1.2 1.6 1.1 2.4-.6 5.7-1.1 2.1-2.4 4-2.9 4.3-.4.3-2.3-1.7-4.2-4.5l-3.4-5.1-2.1 4.3c-3.7 7.6-3.4 7.4-9.6 3.9-3.1-1.8-5.6-2.9-5.6-2.4 0 .4 1.3 3.9 2.8 7.8 3.4 8.4 5.1 15.6 6 25 .6 6.3 1 7.1 3.4 8.3 9.1 4.3 35.5 3.9 42.6-.6.8-.5 1.7-4.6 2.2-10.1 1-8.8 5.8-25.9 8.2-28.8 1.7-2.1-.7-1.6-6.2 1.2-2.7 1.4-5.1 2.5-5.3 2.5s-1.5-2.5-2.8-5.5-2.6-5.5-2.9-5.5-1.8 2.3-3.3 5c-1.6 2.8-3.1 5-3.5 5s-1.7-1.8-2.9-3.9c-1.9-3.3-2.1-4.3-1.1-6.9 1.8-4.7.1-8.6-3.9-9-2.3-.2-3.5.3-4.7 2m6.4 29.9c0 2.4-1.1 4.9-2.1 4.9-2 0-3.1-4.2-1.8-7.2 1.2-2.8 1.3-2.9 2.6-1.2.7 1 1.3 2.6 1.3 3.5m15.8 17.7c3.6 2.1 1.2 3.9-7.1 5.3-11.7 1.9-31.5-.3-30.4-3.5.2-.6 1.9-1.7 3.8-2.3 4.6-1.7 30.5-1.3 33.7.5"/></svg>